<?xml version="1.0" encoding="UTF-8"?>
<svg xmlns="http://www.w3.org/2000/svg" width="20.428mm" height="3.152mm" version="1.1" viewBox="0 0 57.906 8.935">
  <defs>
    <style>
      .cls-1 {
        fill: #fff;
      }
    </style>
  </defs>
  <!-- Generator: Adobe Illustrator 28.6.0, SVG Export Plug-In . SVG Version: 1.2.0 Build 709)  -->
  <g>
    <g id="Layer_1">
      <g>
        <path class="cls-1" d="M0,.319h3.761c.966,0,1.697.248,2.192.744.375.376.563.84.563,1.392v.024c0,.256-.034.482-.102.678-.067.196-.155.368-.262.516s-.234.278-.381.39c-.147.112-.295.208-.446.288.247.088.471.19.674.306.203.116.378.254.525.414s.261.348.34.563c.08.216.12.468.12.756v.024c0,.376-.074.708-.222.996-.147.288-.357.528-.629.72-.271.192-.599.338-.982.438-.383.1-.807.149-1.27.149H0V.319ZM3.473,3.859c.479,0,.861-.094,1.148-.282s.431-.474.431-.858v-.024c0-.336-.125-.598-.377-.786-.251-.188-.616-.282-1.094-.282H1.464v2.232h2.009ZM3.905,7.411c.502,0,.897-.096,1.185-.288.287-.192.431-.48.431-.864v-.023c0-.36-.142-.639-.425-.834-.283-.196-.716-.294-1.298-.294H1.464v2.304h2.441Z"/>
        <path class="cls-1" d="M8.424.319h6.216v1.332h-4.752v2.16h4.212v1.332h-4.212v2.244h4.812v1.332h-6.276V.319Z"/>
        <path class="cls-1" d="M23.567,8.862c-.656,0-1.252-.109-1.788-.329s-.994-.524-1.374-.912-.674-.844-.882-1.368c-.208-.523-.312-1.094-.312-1.709v-.024c0-.583.106-1.14.32-1.668.214-.528.514-.99.9-1.386s.846-.71,1.378-.942c.532-.232,1.114-.348,1.746-.348.368,0,.702.026,1.002.078.3.052.578.126.834.222.256.096.498.214.726.354.228.14.45.302.666.486l-.936,1.116c-.16-.136-.324-.26-.492-.372-.168-.112-.344-.206-.528-.282-.185-.076-.386-.136-.606-.18-.22-.044-.462-.066-.726-.066-.384,0-.742.08-1.074.241-.332.16-.62.375-.864.643-.244.269-.437.583-.576.944-.14.361-.21.742-.21,1.143v.024c0,.433.067.833.204,1.202.136.369.329.686.581.95.251.264.55.473.897.625s.736.229,1.167.229c.399,0,.772-.059,1.119-.175.347-.117.648-.271.904-.465v-1.581h-2.148v-1.283h3.576v3.527c-.208.177-.438.345-.69.504-.252.16-.524.301-.816.42-.292.12-.606.214-.942.282s-.688.102-1.056.102Z"/>
        <path class="cls-1" d="M28.751.319h1.464v7.067h4.416v1.332h-5.88V.319Z"/>
        <path class="cls-1" d="M39.948,8.862c-.647,0-1.24-.113-1.776-.342-.535-.228-.995-.537-1.38-.93-.384-.392-.684-.85-.899-1.374-.216-.523-.324-1.082-.324-1.673v-.024c0-.592.108-1.15.324-1.674s.52-.984.912-1.38c.392-.396.855-.71,1.392-.942s1.128-.348,1.776-.348,1.239.114,1.775.342.996.538,1.38.93c.385.392.685.85.9,1.374s.324,1.082.324,1.674v.024c0,.592-.108,1.15-.324,1.674-.216.523-.521.983-.912,1.38-.392.396-.856.71-1.392.941-.536.232-1.128.348-1.776.348ZM39.973,7.507c.414,0,.794-.078,1.141-.233.347-.156.644-.368.891-.637.246-.268.439-.582.579-.941.14-.36.209-.744.209-1.152v-.024c0-.408-.069-.793-.209-1.158s-.335-.68-.586-.948c-.25-.268-.551-.482-.901-.642-.351-.16-.733-.24-1.147-.24s-.795.078-1.141.234c-.347.156-.644.368-.891.636s-.44.582-.579.942c-.14.36-.21.744-.21,1.152v.024c0,.408.07.794.21,1.158.139.364.334.681.585.948.251.269.552.482.902.642.351.16.732.24,1.147.24Z"/>
        <path class="cls-1" d="M45.251.319h1.597l2.004,6.228,2.063-6.251h1.248l2.064,6.251,2.004-6.228h1.548l-2.928,8.459h-1.272l-2.063-6.035-2.064,6.035h-1.271L45.251.319Z"/>
      </g>
    </g>
    <metadata>
      <sfw xmlns="http://ns.adobe.com/SaveForWeb/1.0/">
        <slices/>
        <sliceSourceBounds x="2.42" y="0.83" width="57.78" height="8.69" bottomLeftOrigin="true"/>
      </sfw>
    </metadata>
  </g>
</svg>